<svg xmlns="http://www.w3.org/2000/svg" viewBox="48.52 2.32 32.47 33.29" fill="none">
<g clip-path="url(#clip0_5301_838)">
<path d="M80.2198 16.4559C80.2738 16.6647 80.1825 16.862 80.117 16.7916C80.323 17.1997 80.1658 17.2255 80.4469 17.2537C80.5994 17.5214 80.4235 17.8356 80.2948 17.5282L80.508 18.3212L80.5267 17.8356C80.7677 17.9577 80.4938 18.6099 80.7749 18.7626L80.7093 17.8777L80.7891 17.9179C80.6954 17.7206 80.7093 17.3262 80.7328 17.1857C80.7749 17.202 80.8336 17.1833 80.8499 17.3404C80.7379 16.2658 80.4096 17.0966 80.2059 16.2424C80.2222 16.2941 80.2293 16.3597 80.2198 16.4559ZM80.6275 15.4585L80.248 15.1606L80.1662 14.5342C80.0654 14.553 79.8732 14.1398 79.8661 14.4615C79.8966 14.5155 79.955 14.6213 79.9693 14.7148C79.8545 14.7101 79.7771 14.52 79.7092 14.3629C79.6318 14.2058 79.5524 14.086 79.4774 14.2034C79.6858 14.6397 79.6342 14.7291 79.8871 14.9705C79.9717 15.4072 80.0229 15.7262 79.9645 15.9465C80.0161 16.069 80.1519 16.0642 80.2035 16.2261C80.194 16.1887 80.1872 16.1557 80.1777 16.1159L80.4985 16.0407C80.4048 15.9115 80.4259 15.7707 80.3814 15.6184C80.3814 15.6184 80.4188 15.6558 80.4659 15.719C80.5128 15.7802 80.5736 15.8622 80.6343 15.9445L80.8804 16.2801C81.0139 16.137 81.0071 15.8833 80.9765 15.6299C80.9344 15.379 80.8499 15.13 80.8757 14.9705C80.7002 15.3885 80.6744 14.7169 80.6275 15.4585Z" fill="#AE7B3C" class="bigChar"/>
<path d="M80.2035 16.2237C80.2035 16.2284 80.2059 16.2352 80.2059 16.24C80.2059 16.2352 80.2059 16.2284 80.2035 16.2237ZM54.8308 26.2803C54.915 26.3837 55.0019 26.3694 55.0463 26.3603C55.0463 26.3603 54.99 26.2875 54.9058 26.1749C54.8637 26.1185 54.8141 26.0552 54.7629 25.9845C54.7184 25.9097 54.6692 25.8321 54.6203 25.7526L54.2313 25.119C54.1797 25.1986 54.3131 25.6257 54.1165 25.4054C54.1023 25.5648 54.3786 25.8627 54.5052 25.8488L54.3365 25.825C54.6505 26.0341 54.5191 26.4119 54.3039 26.2807L54.3226 26.3038L54.88 26.5058L55.4232 26.6888C55.2524 26.3929 55.0908 26.6156 54.8308 26.2803ZM78.646 20.9961C78.646 21.1981 78.6738 21.2287 78.7068 21.212C78.6961 21.1377 78.6759 21.065 78.646 20.9961ZM55.6764 26.7734C55.6696 26.7802 56.023 26.8601 56.023 26.8601C55.9122 26.8147 55.7955 26.7857 55.6764 26.7734ZM51.8631 26.67C51.8536 26.6745 51.842 26.6768 51.8349 26.6911L52.008 26.7778C52.008 26.7755 52.006 26.7755 52.006 26.7755C51.9598 26.7384 51.9121 26.7033 51.8631 26.67ZM61.2394 29.8728C61.2699 29.8775 61.2937 29.8823 61.3287 29.8891C61.2996 29.8804 61.2697 29.875 61.2394 29.8728ZM48.9538 22.3594L49.3567 23.148C49.2396 23.061 49.3707 23.4554 49.2209 23.3099C49.2515 23.3711 49.3659 23.6571 49.3893 23.5632L49.3404 23.3942C49.7173 23.7533 49.7268 23.4694 50.1718 24.089C50.1718 23.852 50.1202 23.6993 50.0428 23.5823C49.9773 23.4622 49.886 23.3755 49.795 23.2745C49.7573 23.2018 49.7315 23.1361 49.7033 23.0729L49.1622 22.4815L48.9538 22.3594ZM74.9776 30.2625L74.9844 30.2835C74.9871 30.2716 74.9824 30.2669 74.9776 30.2625Z" class="bigChar" fill="#AE7B3C"/>
<path class="bigChar" d="M75.015 30.3703L74.9844 30.2812C74.9824 30.3444 74.8816 30.4689 75.015 30.3703ZM55.4771 26.7966C55.522 26.7731 55.5922 26.7639 55.6764 26.7731L55.4283 26.6935C55.4446 26.7194 55.4605 26.7591 55.4771 26.7966ZM54.7042 26.7472L54.3273 26.3062L54.0975 26.2008C54.2476 26.3694 54.4513 26.5476 54.7042 26.7472ZM60.5649 29.4154C61.5256 29.8353 60.2016 29.5936 60.607 29.8751C60.8904 29.9785 61.0544 29.8469 61.2418 29.8728C60.8225 29.7908 60.8976 29.685 60.9726 29.5749C61.05 29.4599 61.1179 29.3589 60.7383 29.2134C60.8483 29.1103 61.0055 29.1171 61.1695 29.1477C61.3358 29.1736 61.5022 29.2464 61.6166 29.3283C61.8182 29.6827 61.2981 29.4178 61.1318 29.631C61.4621 29.7037 61.4224 29.6405 61.605 29.549C62.0687 29.8143 62.7015 29.5371 62.9072 29.9785C63.2796 30.0227 63.2844 29.8704 63.5163 29.7718C63.5607 29.6357 63.4368 29.5796 63.2892 29.5303C63.1466 29.4667 62.9823 29.3963 62.9449 29.2719C62.966 29.3025 63.006 29.3613 62.9823 29.3963L62.7012 29.2627C62.9592 29.4317 62.5912 29.5256 62.4296 29.5068C62.3149 29.4858 62.0874 29.4412 62.1438 29.3708C62.1414 29.3776 62.3288 29.3589 62.3288 29.3589C62.139 29.2277 61.7992 29.3871 61.6237 29.1688C61.6332 29.1056 61.7289 29.1076 61.7547 29.075C61.4458 29.1573 61.1949 29.0893 60.7872 29.0233L61.1063 28.8686C60.7078 29.0093 60.0638 28.6387 59.7474 28.2163C59.7685 28.2843 59.8364 28.3663 59.7593 28.3806C59.4735 28.2843 59.3893 28.0123 59.5834 27.9555C59.4945 27.9674 59.3913 27.9347 59.2976 27.862C59.2039 27.7872 59.1078 27.6858 59.0097 27.5852C58.8152 27.3787 58.5854 27.205 58.3562 27.1791C58.3562 27.1791 57.8056 27.1533 57.2013 27.09C56.809 27.0226 56.4185 26.9452 56.0302 26.8578C56.1076 26.8904 56.1822 26.9305 56.2481 26.9819C56.1846 27.2777 56.2786 27.3362 55.8872 27.2495C56.1989 27.3998 56.262 27.1767 56.5832 27.5171C56.3744 27.4627 56.1238 27.6294 56.4331 27.9817C56.9576 28.2748 57.438 28.4533 57.9675 28.505C58.2177 28.5401 58.4686 28.573 58.7239 28.6057C58.9697 28.6431 59.2368 28.6526 59.4877 28.7091C59.4524 28.7982 59.6092 28.9342 59.8106 29.0773C60.017 29.211 60.2838 29.3239 60.443 29.4293C60.2278 29.5466 59.9372 29.4858 59.6561 29.3776C59.8106 29.483 60.1059 29.617 60.3167 29.732L60.5649 29.4154Z" fill="#AE7B3C"/>
<path class="bigChar" d="M58.0867 28.6693C58.0986 28.6999 58.1172 28.723 58.1335 28.7488C58.1312 28.7278 58.1196 28.7019 58.0867 28.6693ZM59.5743 29.3259C59.5671 29.3307 59.5648 29.3355 59.56 29.3426L59.6466 29.38C59.6232 29.3613 59.5929 29.3402 59.5743 29.3259ZM55.3206 27.2825C55.229 27.2658 55.1845 27.2356 55.1 27.2121C55.14 27.2356 55.1845 27.2706 55.2337 27.2988C55.2877 27.3175 55.323 27.3199 55.3206 27.2825ZM55.4283 26.888L55.5101 26.8693C55.4985 26.8411 55.489 26.8224 55.4771 26.7966C55.4398 26.8156 55.4188 26.8455 55.4283 26.888ZM64.238 32.1583L64.3548 32.1229C64.2869 32.1229 64.2563 32.1372 64.238 32.1583Z" fill="#AE7B3C"/>
<path class="bigChar" d="M61.5347 30.1543C61.1763 30.0418 61.399 30.4053 60.8904 30.2223L61.0333 30.2927C60.6117 30.2999 60.0285 29.9081 59.6021 29.7296C59.6982 29.6616 59.4242 29.4691 59.558 29.345C59.2742 29.2181 58.9911 29.0913 58.7544 29.1596C58.6139 29.0209 58.2904 28.9624 58.1335 28.7512C58.1573 28.9015 57.6321 28.8216 58.2038 29.0892C58.1546 29.0702 58.1665 29.1103 58.1196 29.0913C58.3515 29.4647 58.6417 29.3215 58.93 29.4973C59.0518 29.6946 58.5531 29.4647 58.6981 29.6027C58.9089 29.6735 59.1805 29.8799 59.4266 30.0183C59.6843 30.1356 59.9046 30.1941 59.9769 30.0115C60.2675 30.1217 60.2699 30.2176 60.3238 30.3233C60.6236 30.2577 61.0357 30.4267 61.3918 30.5978C61.7456 30.7763 62.0687 30.8562 62.1366 30.6001C62.0501 30.5862 61.9353 30.5675 61.8111 30.5461C61.6892 30.5155 61.5534 30.4923 61.4129 30.5019L61.5347 30.1543ZM55.8054 27.7752C55.819 27.7963 55.8451 27.8195 55.8543 27.8385C55.8404 27.8174 55.8221 27.7963 55.8054 27.7752ZM54.55 22.8569L54.9269 22.8733C55.0885 23.2582 55.2477 23.4976 55.3437 23.751C55.3953 23.8778 55.4469 23.9995 55.5009 24.1335C55.5641 24.2627 55.6482 24.394 55.7443 24.5511C55.7328 24.6239 55.6601 24.5627 55.6224 24.5324C55.782 24.7388 55.9202 25.0343 56.1099 25.2738C56.2994 25.5132 56.4891 25.7315 56.6626 25.8321C56.7424 25.9753 56.9715 26.3483 56.7773 26.3014C56.8547 26.3415 56.9389 26.3885 56.9953 26.4657C56.9179 26.569 56.8289 26.3364 56.7468 26.4C56.7913 26.4612 56.7913 26.4987 56.8337 26.4847C56.6674 26.4636 56.6086 26.8669 56.2057 26.4167C56.2807 26.0528 56.5102 26.7051 56.6674 26.3909C56.5384 26.2453 56.4565 26.3439 56.4144 26.3555C56.2573 26.1606 56.3347 26.1069 56.3954 26.0739C56.2596 26.06 56.185 25.7243 55.9833 25.708C55.6717 25.335 56.1965 25.5856 56.0044 25.3394C56.0044 25.3394 55.9107 25.3489 55.8146 25.3605C55.7523 25.368 55.6898 25.3735 55.6272 25.3771L55.4069 24.8891C55.1591 24.5909 55.0487 24.6824 54.9248 24.7694C54.8097 24.8514 54.6458 24.9476 54.3579 24.5722C54.5592 24.6004 54.6577 24.1359 54.5405 23.737C54.6692 23.955 55.0301 24.2791 55.1119 24.5933C55.1027 24.089 55.4585 25.1 55.5899 24.7531C55.3624 24.6402 55.1377 24.3423 55.0976 24.0465L55.1635 24.1172C55.0698 23.8353 54.6553 23.7744 54.5942 23.3405C54.5147 23.148 54.6128 23.1501 54.6974 23.1548C54.5966 23.0072 54.4821 22.8828 54.55 22.8569ZM54.7653 23.2514C54.7585 23.2534 54.8518 23.5115 54.8518 23.5115C54.8756 23.432 54.8237 23.3449 54.7653 23.2511V23.2514ZM78.6973 10.7446C78.7091 10.78 78.721 10.8198 78.7326 10.8527C78.7326 10.8245 78.7159 10.7871 78.6973 10.7446ZM51.8278 11.2163L51.9473 11.0381C51.9029 11.0943 51.863 11.1539 51.8278 11.2163ZM53.9994 6.66419L54.1936 6.38262C54.0975 6.47444 54.0439 6.56795 53.9994 6.66419ZM77.2474 8.68688L77.2426 8.67736C77.2263 8.66818 77.2121 8.66376 77.1958 8.65185L77.2474 8.68688ZM63.1815 3.00852C63.2328 3.02961 63.2915 3.04593 63.3666 3.05307C63.3523 3.02247 63.2844 3.00886 63.1815 3.00886V3.00852ZM53.9641 6.71588C53.9698 6.71179 53.9761 6.70858 53.9828 6.70636L53.9994 6.66419L53.9641 6.71588ZM50.0571 12.7836C50.0503 12.8329 50.0432 12.8775 50.0384 12.9315C50.0547 12.8635 50.0571 12.821 50.0571 12.7836ZM51.0266 12.8353C51.0171 12.8801 51.0117 12.9256 51.0103 12.9713L51.027 12.8353H51.0266ZM49.2912 20.1235L49.3544 20.4166C49.3405 20.2711 49.317 20.1868 49.2912 20.1235ZM50.5605 13.4804C50.57 13.5018 50.5772 13.5229 50.5863 13.5368C50.5911 13.4947 50.5819 13.4709 50.5605 13.4804ZM78.6575 12.7486C78.6552 12.7438 78.6508 12.737 78.6508 12.7346L78.6131 12.7438L78.6572 12.7486H78.6575ZM79.3579 13.1641C79.3928 13.2342 79.4305 13.3093 79.4679 13.3821C79.4413 13.3047 79.4043 13.2316 79.3579 13.1641ZM67.3462 3.47781C67.4141 3.53664 67.5805 3.6186 67.4915 3.66076C67.6436 3.61145 67.6579 3.4472 67.3462 3.47781ZM76.287 12.6054C76.3457 12.6149 76.397 12.636 76.451 12.6595C76.3644 12.6102 76.2914 12.5677 76.287 12.6054ZM76.451 12.6595C76.4931 12.683 76.5399 12.7112 76.5823 12.7323C76.5404 12.7048 76.4965 12.6805 76.451 12.6595ZM65.4537 6.0752C65.4449 6.0637 65.434 6.05404 65.4216 6.04681C65.4091 6.03957 65.3953 6.03489 65.381 6.03304C65.3925 6.07758 65.4183 6.08473 65.4537 6.0752Z" fill="#AE7B3C"/>
<path class="bigChar" d="M79.4845 13.5838C79.5711 13.5933 80.0979 14.5434 79.8287 13.6848C80.063 13.6378 80.1519 14.1915 80.2504 14.4125C80.2599 14.2245 80.4215 14.4543 80.4914 14.3771C80.4306 14.2666 80.3369 14.1449 80.2785 13.9521C80.3512 13.8303 80.5362 14.0956 80.5477 14.3442C80.5946 14.0177 80.8288 14.6587 80.8149 14.2197C80.6601 13.7905 80.4564 13.4454 80.2714 13.1403C80.0816 12.8353 79.8685 12.5796 79.5619 12.3779C79.6298 12.4857 79.6977 12.5983 79.768 12.7088C79.8264 12.8261 79.8827 12.9434 79.9319 13.0631C80.0324 13.3002 80.1119 13.5324 80.1356 13.7433L79.8776 13.6497C79.8851 13.4008 79.8311 13.2202 79.7585 13.0465C79.6882 12.873 79.5945 12.7112 79.4984 12.5044C79.4984 12.5044 79.5195 12.5656 79.5524 12.6547C79.5874 12.7438 79.6203 12.8683 79.6509 12.9948C79.7116 13.2437 79.7748 13.4947 79.7748 13.4947C79.7724 14.0014 79.625 13.713 79.4635 13.3821C79.494 13.4688 79.5123 13.5511 79.4845 13.5838ZM77.5543 13.6708V13.6872C77.5658 13.6967 77.5753 13.7082 77.5872 13.713L77.5543 13.6708ZM53.5262 19.729L53.608 19.7902C53.5707 19.7386 53.5449 19.7222 53.5262 19.729ZM78.2498 12.7673C78.2451 12.7625 78.2451 12.7649 78.2498 12.7673V12.7673ZM53.5309 18.0185C53.5353 18.0209 53.5425 18.0233 53.5472 18.028C53.5427 18.0235 53.5371 18.0203 53.5309 18.0185ZM49.0427 17.1153C49.0336 17.1177 49.0241 17.1201 49.0122 17.1293C49.0241 17.1786 49.0336 17.1551 49.0427 17.1153ZM53.5119 18.0161C53.5191 18.0161 53.5238 18.0161 53.5309 18.0185C53.5238 18.0161 53.5191 18.0141 53.5119 18.0161ZM56.1727 10.008C56.1727 10.008 56.1286 10.0033 56.0722 10.0128C56.077 10.0383 56.1048 10.0434 56.1727 10.008ZM54.8145 11.1789C54.8002 11.1836 54.7907 11.1836 54.7771 11.1904L54.8145 11.1789ZM66.9385 2.47837C66.8513 2.46943 66.7635 2.46864 66.6761 2.47599C66.7559 2.48279 66.8424 2.48755 66.9385 2.47837ZM57.5714 7.39158C57.5598 7.41029 57.5479 7.42899 57.5384 7.44565L57.5714 7.43409V7.39158Z" fill="#AE7B3C"/>
<path d="M58.4825 6.99541C58.4662 7.03282 58.4662 7.06343 58.4615 7.09131C58.5881 6.96447 58.7989 6.83558 58.9744 6.71384C59.1594 6.60808 59.3047 6.50232 59.2908 6.385C59.2392 6.41323 59.0589 6.46492 58.8926 6.49042C58.731 6.52103 58.5905 6.53769 58.602 6.45063C58.417 6.62917 58.0212 6.68528 57.9231 6.78866C58.3396 6.67848 58.0589 6.92706 57.8687 7.1311C57.6206 7.20625 57.8104 6.95529 57.6019 7.03486L57.147 7.40349L57.5714 7.1243V7.39397C57.5805 7.37764 57.5897 7.36574 57.5992 7.34704C58.2503 6.7958 57.8287 7.56298 58.4822 6.99507L58.4825 6.99541ZM58.4615 7.09131C58.4241 7.12872 58.3936 7.16612 58.3749 7.20625C58.4404 7.16204 58.4543 7.12668 58.4615 7.09131ZM61.6471 6.04732C61.6844 6.03066 61.7269 6.00991 61.7761 5.97931C61.7523 5.99087 61.6963 6.02147 61.6471 6.04732ZM53.9125 25.8253C53.957 25.7784 53.8236 25.3044 53.683 25.3935C53.7417 25.5251 53.8025 25.6563 53.8633 25.79L53.9125 25.8253ZM70.8221 5.56375C70.7708 5.54026 70.7185 5.51915 70.6653 5.5005C70.6517 5.50295 70.6384 5.50683 70.6256 5.51206C70.649 5.54947 70.7634 5.55899 70.8221 5.56375ZM58.6957 6.30305C58.6278 6.37344 58.6068 6.41799 58.5996 6.45063C58.6461 6.41258 58.6797 6.36101 58.6957 6.30305ZM70.7026 5.93918C70.7495 6.00719 70.8197 6.10581 70.8058 6.17382C70.9324 6.23741 71.0563 6.19967 71.1996 6.23503C71.0401 6.19253 70.888 6.0752 70.7026 5.93918ZM71.2111 6.23707L71.1996 6.23503C71.2044 6.23741 71.2088 6.23741 71.2111 6.23741V6.23707Z" fill="#AE7B3C"/>
<path class="bigChar" d="M54.0018 26.1093C54.0324 26.1399 54.0649 26.1702 54.0975 26.2008L54.0252 26.1678C54.0721 26.2712 54.107 26.379 54.161 26.4773C54.1936 26.5034 54.2289 26.5337 54.2663 26.5738C54.2482 26.5602 54.2255 26.5543 54.2031 26.5572L54.2523 26.6534C54.5545 26.7684 55.0369 27.2189 55.2334 27.2965C55.4561 27.4325 55.6883 27.625 55.8054 27.7726C55.6904 27.6413 55.5101 27.4937 55.4843 27.6086C55.5664 27.7729 55.5875 27.9371 55.6601 28.0966C55.7328 28.2565 55.8591 28.4204 56.1802 28.5353L56.0444 28.4132C55.9738 28.3524 55.9107 28.2891 55.9107 28.2891C55.9107 28.2891 55.9599 28.3126 56.0441 28.336L56.3394 28.4323L56.7611 28.5683C56.8687 28.8733 56.3418 28.4343 56.166 28.4534C56.4633 28.6009 56.6253 28.8499 56.7726 29.0634C56.9131 29.2838 57.0703 29.4222 57.2811 29.3919C57.199 29.5654 57.0632 29.8588 57.4217 30.1027C57.2995 29.7439 57.7072 30.1428 57.6369 29.8048C57.8128 29.8071 57.9764 30.138 58.0796 30.0278L58.0025 30.0721C58.4615 30.6964 58.9042 30.4312 59.2348 30.4359C60.0238 30.7294 60.3096 31.0273 60.975 31.215C60.9563 31.3418 61.0191 31.736 61.291 31.8227C61.4669 31.7149 62.1041 31.7805 62.2141 31.5881C61.7642 31.3772 61.7761 31.6656 61.4716 31.6397C61.31 31.3347 61.5185 31.4143 61.2489 31.1681C61.4669 31.3793 62.4364 31.3745 62.6686 31.6703L62.5607 31.6724C62.7715 31.8016 62.8794 31.9869 63.0434 32.1206C63.205 32.2566 63.425 32.3461 63.8446 32.243L64.0411 32.2053C64.1396 32.1886 64.238 32.1536 64.238 32.1536C64.2166 32.1747 64.2122 32.2005 64.2007 32.2192C64.8212 32.2733 64.643 32.5127 65.3433 32.3532C65.2897 32.3648 65.3223 32.3906 65.2687 32.4022C65.6669 32.5477 66.0651 32.2474 66.3553 32.1913C66.5498 32.3648 66.3248 32.3743 66.2171 32.5103C66.9362 32.5783 67.6484 32.1022 68.0208 31.8322C68.0208 31.8322 68.049 31.8346 68.091 31.839C68.1331 31.8438 68.1919 31.8462 68.2455 31.8438C68.3582 31.8414 68.4706 31.8414 68.4706 31.8414C68.2363 31.9917 67.9481 32.224 68.049 32.3202C68.29 32.2474 68.2245 32.1675 68.5734 32.1162C68.5409 32.2454 68.4214 32.3906 68.2856 32.5736C69.0562 32.5831 68.3535 32.1301 68.9414 32.3508C69.1685 32.2944 69.2551 32.0951 69.2388 31.9543C69.2388 31.9543 69.6957 32.0291 69.6934 32.0175C69.6839 31.8298 70.1595 31.6445 70.464 31.5037C70.4731 31.4167 70.1428 31.4167 70.0491 31.5248C70.0257 31.3816 70.3279 31.2011 70.5387 31.1259C70.7729 31.4615 71.8436 30.4431 71.8059 30.9617C72.031 30.8324 72.251 30.6447 72.49 30.4781C72.7218 30.3023 72.9771 30.1472 73.1927 29.9551C73.3958 29.7779 73.5958 29.5972 73.7925 29.413L74.0383 29.1736C74.1062 29.0913 74.1649 29.0117 74.2142 28.9413C74.4437 28.8733 74.7855 28.5707 74.7037 28.8825C74.8426 28.7566 74.9682 28.6167 75.0785 28.4649C75.1769 28.3241 75.2424 28.1691 75.3171 28.0286C75.4655 27.7164 75.6687 27.4334 75.917 27.1931C75.9543 27.1815 75.9027 27.2567 75.8515 27.3386C75.7951 27.4162 75.7411 27.5053 75.7999 27.5359C75.9309 27.2965 76.0833 27.1135 76.2941 26.921C76.397 26.8224 76.5046 26.717 76.6149 26.5925C76.6724 26.526 76.7271 26.4572 76.7789 26.3861C76.8258 26.3062 76.8706 26.2195 76.9147 26.1233C76.8468 26.2453 76.8913 26.3249 76.9147 26.3627C76.8563 26.3389 76.985 25.9988 77.0437 25.7829C77.135 25.6961 76.9992 25.9451 77.0742 25.9121C77.594 25.283 77.8075 24.579 78.0017 23.9037C78.0743 23.5537 78.1399 23.2065 78.2241 22.857C78.2943 22.5026 78.3412 22.1343 78.4491 21.7589C78.3344 22.1884 78.5309 22.4207 78.6294 22.4533L78.7441 22.0194C78.6623 21.8221 78.7652 21.5032 78.7 21.2073C78.7509 21.1818 78.8215 21.0573 78.8589 21.2053C79.0463 20.7897 78.9994 20.4262 78.9081 20.0508C78.7981 19.6706 78.6715 19.2832 78.7655 18.7578C78.7655 18.7578 78.8755 19.084 78.9831 19.4101C79.0931 19.7481 79.2011 20.0858 79.2011 20.0858L79.3932 19.7692L79.4917 20.0742C79.5477 20.229 79.5731 20.3837 79.5731 20.3837C79.7632 20.0412 79.4373 19.7012 79.6342 19.673C79.6835 19.7525 79.658 19.9334 79.7585 19.9474C79.8498 19.6049 79.7116 19.5672 79.6858 19.3067C80.0677 20.0086 79.8848 21.395 79.7843 22.1343C79.7843 22.254 79.7188 22.0146 79.6858 21.9888C79.6227 22.2846 79.4635 22.4298 79.4329 22.8148C79.529 23.0892 79.5921 22.674 79.6553 22.4958C79.7867 22.5567 79.7537 22.6482 79.7211 22.8597C79.5592 22.8597 79.2924 23.9435 78.9831 24.1101C78.8263 24.645 78.92 24.6406 79.0486 24.6426C79.1658 24.6402 79.269 24.6263 78.9902 25.1143L78.6528 25.3183C78.6187 25.4907 78.5796 25.662 78.5357 25.8322C78.4773 26.0059 78.4067 26.1817 78.332 26.3579C78.1725 26.7051 78.0112 27.0734 77.7675 27.3505L77.854 27.2213C77.8401 27.0877 77.6901 27.1907 77.6082 27.2237C77.2053 27.6015 77.1303 28.1742 76.7392 28.282C76.6173 28.587 76.4113 28.9648 76.1791 29.3474C75.9333 29.7133 75.6406 30.0605 75.4084 30.3563C75.0758 30.2693 75.9591 29.5419 76.0388 29.2018L75.971 29.2766C75.9265 29.3192 75.8657 29.3729 75.807 29.427C75.6875 29.5371 75.5656 29.6477 75.5656 29.6477C75.861 29.3729 75.9075 29.1923 75.9452 28.8992C75.5283 29.2698 75.5422 29.5514 75.1932 29.9785C75.1745 29.8915 75.088 29.9034 74.905 30.0676L74.9729 30.2601C74.9614 30.253 74.9308 30.2601 74.8605 30.2951L74.1554 30.9685C74.3686 30.9123 74.4742 31.0365 74.6803 30.8865C74.5421 30.8535 74.6989 30.7059 74.9026 30.558C74.8021 30.7879 75.1674 30.4924 75.2258 30.5696C74.8161 30.8794 74.3218 31.2759 74.0804 31.52L73.8906 31.4333C73.4527 31.6513 73.0616 32.0012 72.7548 32.1277L72.7992 31.9917C72.2652 32.2195 71.7896 32.562 71.258 32.6208C70.8506 32.9772 70.2905 33.3832 69.93 33.6975C69.8502 33.8359 69.4449 33.8665 69.0093 33.9182C68.5734 33.9886 68.091 33.9862 67.8171 34.195C67.775 34.1763 68.1987 33.9651 68.3816 33.8501C67.9878 33.876 67.7163 34.1997 67.5594 33.9838C68.4472 33.9297 67.4844 33.8032 67.8663 33.6788C67.4634 33.7372 67.0441 33.8665 66.8496 33.9484C67.515 33.8828 66.6459 34.3191 67.3113 34.1246C67.0604 34.2749 66.7511 34.3453 66.4232 34.4014C66.0953 34.4507 65.751 34.4742 65.4326 34.4412C65.4394 34.3405 65.36 34.2888 65.1257 34.2348L64.9312 34.3732C64.6359 34.331 65.5073 34.2256 64.9149 34.1433C64.6057 34.2487 64.1419 34.2113 63.7295 34.148C63.3173 34.0776 62.9449 34.0379 62.7715 34.249C62.3403 33.9954 63.6826 34.1997 63.022 33.8688C63.4463 33.7587 63.9708 34.0494 64.1277 33.8056C63.7295 33.8498 64.0058 33.5988 63.7576 33.5662L63.3102 33.6458L63.4039 33.6696C62.6428 33.8032 61.509 33.4417 60.6117 33.1721C60.1996 33.1462 59.8272 33.1625 59.4405 33.1391C59.0202 33.0865 58.613 32.9576 58.2388 32.7589C58.4031 32.7613 58.232 32.6416 58.1078 32.529C57.9859 32.4117 57.9136 32.2991 58.2415 32.3318C57.9088 32.0104 57.4685 31.8955 57.403 31.9798C57.7238 32.2168 57.5059 32.0808 57.7683 32.2991C57.513 32.2896 57.0608 32.008 56.9226 31.8275C57.0021 31.8859 56.9838 31.8485 57.0235 31.8275C56.6626 31.5081 56.7611 31.8111 56.4494 31.6489C56.4613 31.4425 55.8614 31.1518 55.6649 30.8913C55.6649 30.8913 55.5311 30.8746 55.4093 30.842L55.1587 30.7807C55.4541 30.8277 54.8685 30.4383 54.9153 30.2788C54.5989 30.138 54.2337 30.1098 53.9315 29.6922C54.1328 29.7884 53.7088 29.2651 53.826 29.1501C53.7202 28.9808 53.5854 28.8315 53.4277 28.7091C53.292 28.5799 53.1443 28.4721 52.9966 28.3639C52.7087 28.1436 52.409 27.9205 52.2824 27.5124C52.3292 27.5124 52.5027 27.592 52.4134 27.3669C52.2776 27.2332 52.1231 26.9421 52.0036 26.7779L52.0176 26.7803L52.0084 26.7735C51.9497 26.6935 51.9004 26.651 51.8631 26.6677C51.7063 26.5596 51.5633 26.4868 51.4085 26.3742C51.2633 26.2545 51.0996 26.0926 50.8864 25.8063C50.7411 25.9332 51.0548 26.447 51.2398 26.6347L51.5165 26.7333C51.3783 27.0571 51.8842 27.2448 51.8842 27.4305C51.636 27.341 51.3665 27.0244 51.0949 26.6606C50.844 26.2851 50.6121 25.8532 50.3569 25.5601C50.3334 25.8182 50.4224 26.1797 50.57 26.5715C50.7126 26.968 50.9774 27.3573 51.2096 27.7236L51.1064 27.3363L51.3454 27.7212L51.2891 27.2424C51.4859 27.6178 51.6964 27.9205 51.9239 28.2279C51.6499 27.8715 51.802 27.5641 51.8913 27.8055C52.0176 28.3173 52.2919 28.1531 52.5023 28.4602C52.3923 28.282 52.2331 28.0637 52.4253 28.1412C52.6901 28.8614 52.8985 28.9505 53.1772 29.6007C53.3551 29.3307 53.7696 30.206 54.0225 30.1006L53.8331 29.8541C53.8331 29.8541 53.9784 29.9408 54.121 30.0299C54.2663 30.1146 54.4231 30.1873 54.4231 30.1873C54.6926 30.7807 53.8426 30.0088 54.4044 30.7692C55.0229 31.3745 55.2124 31.1164 55.7606 31.4894C55.6157 31.4966 55.4144 31.452 55.1917 31.3629C54.9737 31.2667 54.7514 31.1072 54.5501 30.9243L54.7371 31.215C54.5382 31.1752 53.976 30.6519 53.7183 30.3703C54.0133 30.5206 53.9736 30.4522 53.8494 30.3138C53.7299 30.1686 53.5309 29.9432 53.498 29.7813C53.3293 29.8636 53.6223 30.1452 53.1959 29.8894C53.5075 30.2132 53.5401 30.2717 53.9101 30.7127C53.4909 30.2577 53.2122 30.1404 52.9172 30.0489C52.7743 29.9996 52.6337 29.9527 52.4908 29.8585C52.3455 29.7674 52.2002 29.6239 52.0668 29.3756C52.4392 29.732 52.1629 29.0702 52.1982 28.972C52.0386 28.7958 51.7178 28.4347 51.5633 28.3007L51.4581 28.5941C51.212 28.3687 51.1977 28.113 51.1533 27.8691C51.1088 27.6226 51.0456 27.3856 50.7388 27.1346C50.5537 27.1298 51.0314 27.7236 50.9377 27.6226C50.2469 26.8367 50.493 26.2759 50.2842 25.4078C50.1953 25.3911 50.0337 25.4758 49.7947 25.2316C49.9749 25.2622 49.961 25.0204 50.2 25.2996C50.146 25.0017 49.9261 24.713 49.7757 24.4879C49.9047 25.1048 49.4786 24.326 49.3496 24.2437C49.2654 23.9271 49.5323 24.2883 49.6426 24.4597C49.591 24.1992 49.7081 23.8425 49.4362 23.7744C49.591 23.7204 50.09 24.3165 50.2913 24.7341L50.2071 24.4291C50.3592 24.6025 50.3521 24.6474 50.4366 24.95C50.4482 24.6168 50.5911 24.5957 50.7245 24.6168C50.7153 24.6613 50.6804 24.61 50.6709 24.6542C50.715 24.9031 50.8277 25.0602 50.8885 24.9711C51.1743 25.0861 50.8885 24.6052 50.9428 24.408C50.8864 24.2978 50.8301 24.1876 50.7737 24.0795C50.7737 24.0795 50.4974 23.838 50.2211 23.5986C50.0454 23.4288 49.8751 23.2534 49.7105 23.0729C49.4973 22.5495 49.5767 22.2656 49.6144 21.8385L49.4107 21.7613C49.3544 21.2757 49.3473 20.8179 49.6307 21.088C49.5696 21.1138 49.5957 21.1747 49.6025 21.278C49.6311 21.2893 49.6551 21.3099 49.6704 21.3365C49.6823 21.3433 49.6942 21.3484 49.7078 21.3552C49.5676 20.8577 49.481 20.5483 49.4735 20.5177C49.8741 21.3413 49.8229 20.5177 50.1763 20.6231C50.1763 20.6231 50.1627 20.5717 50.1389 20.4939C50.1101 20.4009 50.0874 20.3062 50.071 20.2103C50.0337 20.0015 49.994 19.7927 49.994 19.7927C49.9142 20.316 49.83 19.8137 49.776 19.6308C49.9658 19.5696 49.7292 18.9408 49.7641 18.6381L49.8015 18.6616C49.8792 18.3848 49.8863 17.9012 49.8534 17.5496C49.7923 17.5632 49.4925 17.0871 49.3568 16.8433C49.2067 17.4486 49.1836 17.0779 49.0546 17.1153C49.0662 17.0521 49.092 16.9372 49.0685 16.9205C49.0288 16.8266 48.9796 17.0354 48.9141 17.0473C48.9609 17.7254 48.9538 18.413 49.2067 18.683C49.3357 18.4834 49.1083 18.3379 49.1999 18.1124C49.2794 18.279 49.3075 18.4644 49.3099 18.6756C49.3167 18.8891 49.3262 19.1261 49.3357 19.3985L49.1857 19.5839L49.3004 20.1259C49.2043 19.9028 49.0451 20.0555 48.9844 19.4733C48.8391 19.5556 49.0475 20.0508 49.0193 20.4119C49.0953 20.4662 49.1726 20.5185 49.2512 20.569C49.1249 20.5105 49.2138 21.2729 48.9748 20.7523L48.928 20.6163C48.891 20.5185 48.8613 20.4182 48.8391 20.316C48.7827 20.095 48.7291 19.8746 48.7291 19.8746L48.6001 20.1351L48.5206 19.37L48.6377 19.5461C48.4432 18.3192 49.0078 19.1822 48.8085 17.9577C48.5838 17.5632 48.5393 17.1317 48.7338 16.39C48.708 16.9416 48.9022 16.4699 49.0193 16.6906C49.2067 16.1601 49.0261 15.9469 48.9752 15.6419C49.1296 15.5269 49.2512 15.4514 49.1575 15.9326C49.427 16.0431 49.202 15.2828 49.516 15.3038C49.7081 14.5271 49.5628 14.1517 49.481 13.7436C49.4267 13.3471 49.4199 12.9013 49.9471 12.0658L50.0242 12.1759C50.2187 11.5917 50.4295 11.153 50.6427 10.7307C50.8837 10.3246 51.137 9.93766 51.3946 9.4262C51.3946 9.4262 51.4388 9.3888 51.507 9.33235C51.5796 9.28066 51.6757 9.21264 51.7718 9.14191C51.9473 9.01065 52.1394 8.877 52.1394 8.877C52.0576 9.06472 51.9286 9.61154 52.191 9.49898C51.6896 9.66323 51.5657 10.123 51.1814 10.428C51.2259 10.5079 51.3712 10.3763 51.453 10.3318C51.3104 10.5664 51.1159 10.6157 50.9822 10.9582C51.0365 10.9677 51.3125 10.6674 51.1886 10.9395C51.1886 10.9395 51.0877 11.0242 50.994 11.1156C50.898 11.2047 50.8043 11.2959 50.8043 11.2959C50.5935 11.9345 51.0619 11.7822 50.6542 12.4364C50.5629 12.2443 50.4716 11.8781 50.5677 11.5873C50.3803 11.8968 50.6872 11.1109 50.4553 11.3642C50.4601 11.9437 50.1389 12.0729 50.0547 12.784C50.05 12.6945 50.0126 12.6571 50.0595 12.4929L49.6168 13.4032C49.7268 13.3094 49.6939 13.5182 49.6636 13.7433C49.6378 13.9735 49.6399 14.2269 49.7526 14.2105C49.8344 13.9592 49.8979 13.795 49.9515 13.6661C50.0007 13.5369 50.0289 13.4454 50.0618 13.3471C50.125 13.1546 50.2 12.9435 50.4648 12.4062C50.3898 12.7415 50.4434 13.2274 50.5633 13.4784C50.5514 13.4852 50.5395 13.4995 50.5232 13.5301C50.6614 13.7647 50.7761 13.6144 51.1227 13.7389C51.0619 13.1733 51.343 12.9129 51.4836 12.3147C51.3569 12.127 51.0806 12.5235 51.027 12.8329C51.027 12.8329 51.0314 12.7979 51.0361 12.7462C51.0409 12.6922 51.0504 12.6241 51.0667 12.5561L51.1227 12.2841L51.1601 12.4177C51.1601 12.4177 51.3244 12.1151 51.4883 11.81C51.5701 11.6597 51.6523 11.5074 51.7158 11.3948C51.7742 11.2799 51.8278 11.2119 51.8278 11.2119C51.7063 11.4418 51.7837 11.5825 51.8 11.742C51.8899 11.5841 52.0083 11.4441 52.1489 11.3292C51.9616 11.268 51.8536 11.1813 51.9473 11.0357C52.1958 10.6698 52.4205 10.4046 52.6242 10.2168C52.7985 10.0614 53.0026 9.94329 53.2241 9.86964C53.2404 9.84142 53.259 9.80843 53.2733 9.78055C53.0272 9.78259 53.3551 9.07424 53.3717 8.7267C53.5191 8.86748 53.7696 8.46655 54.0181 8.34923C53.9359 8.09316 53.5778 8.00644 53.2169 8.12139C52.9664 8.71989 53.1514 8.52028 53.2101 8.93787L52.7977 9.82748L52.7739 9.54591C52.4066 9.87645 52.3808 10.4141 52.1958 10.2519C52.1958 10.1019 52.2637 9.94004 52.3526 9.79449C52.4416 9.64894 52.5281 9.5034 52.54 9.35105L52.2729 9.55985C52.4205 8.9593 52.6313 9.46123 52.9145 8.80661C52.6008 8.88414 52.9382 8.7454 53.0156 8.42166C52.7508 8.52028 52.3197 9.44491 52.1629 9.0671C52.2121 8.87224 52.4813 8.68215 52.739 8.47335C52.9946 8.25979 53.2753 8.06289 53.3035 7.76024L53.3178 7.80445C53.5754 7.55348 53.7112 7.34944 53.7954 7.16853C53.8823 6.99034 53.9292 6.84955 53.9828 6.70877C54.2897 6.58226 54.4981 6.17623 54.7442 5.93921L54.8026 6.02388C54.8026 6.02388 54.88 5.93207 54.9713 5.85487C55.0603 5.77496 55.1472 5.69504 55.1472 5.69504C55.0769 5.96981 54.7113 6.03782 54.4255 6.3381L54.5894 6.44624C54.0955 6.59145 54.0836 7.04475 53.957 7.4127C54.2079 6.92709 55.0579 6.46018 54.9082 6.09189C54.9058 6.08713 55.283 6.03782 55.283 6.03782L55.3624 5.8899C55.6459 5.86201 55.578 6.17861 55.2548 6.49997C55.1659 6.51425 55.1214 6.52377 55.1143 6.4765C55.009 6.6853 54.9642 6.92471 54.5592 7.2345L54.6926 6.97878C54.196 7.38481 53.868 7.87756 53.8633 8.16151C54.0273 8.00406 54.1912 7.84934 54.3532 7.69427C54.5239 7.54906 54.6926 7.40589 54.859 7.26239C55.1964 6.97878 55.503 6.67374 55.8499 6.4272C55.784 5.93921 55.8896 5.55902 55.7678 5.15332C55.8801 5.0479 55.9996 4.93262 56.1334 4.82482C56.2715 4.72382 56.4165 4.62283 56.5645 4.52897C56.8595 4.34363 57.164 4.18653 57.4237 4.11613L57.4217 4.20999C57.658 4.11137 57.8664 4.00357 58.0212 3.87197C58.3094 3.8485 57.9509 4.1396 58.1431 4.10899L58.8573 3.61624C58.8811 3.80396 58.2368 4.11375 57.939 4.27596C57.9906 4.23345 58.0915 4.15116 58.0443 4.14674C57.6369 4.23584 57.1779 4.90678 56.8921 4.76599C56.7495 4.90678 57.1311 4.39532 56.557 4.72859C56.1191 4.87413 56.1378 5.16046 56.1473 5.25194C56.1918 5.32675 56.796 4.99349 56.6626 5.22372C56.9413 5.03838 56.9882 4.85509 57.4074 4.71702C57.1263 4.90202 56.8548 5.31043 56.6181 5.27064C56.1823 5.79366 56.557 6.14358 56.8008 5.98375C56.6463 5.8899 57.6861 5.21861 56.8639 5.491C56.9742 5.31043 57.1779 5.12714 57.4027 4.94691C57.6232 4.76871 57.8466 4.59412 58.0728 4.42321L58.0704 4.4681L58.6136 4.15116C58.5576 4.23822 58.4055 4.36234 58.4452 4.4562L59.1126 3.83218C58.9276 4.02228 59.0097 4.01752 59.1642 3.96583C59.321 3.91652 59.5648 3.8417 59.6819 3.83932C59.7101 3.66079 59.9959 3.43567 59.6537 3.46627C59.2627 3.48974 59.4806 3.621 59.1713 3.74785L59.5298 3.35133L59.5767 3.35813L59.7804 3.06738C60.408 2.85382 59.668 3.60706 60.3941 3.13301L60.204 2.90993C61.1647 2.63108 62.4507 2.65659 63.1089 2.45731C62.9426 2.64026 62.9052 2.90075 63.1768 3.01093C62.8886 3.01773 62.3101 3.07894 61.9211 3.22925C61.877 3.21497 61.9846 3.10479 62.1601 2.98985C62.3606 2.86946 62.5873 2.79946 62.8207 2.78581C62.6754 2.58177 62.3967 2.68957 62.1509 2.80451C61.9048 2.93578 61.6868 3.06024 61.605 2.8443C61.0171 2.91231 60.832 3.07656 60.6728 3.21735C60.5157 3.37004 60.3846 3.50844 59.8764 3.55061C59.9348 3.74785 59.649 3.7407 59.6656 3.92604C59.8598 4.03146 60.1575 3.91924 60.4902 3.76621C60.8158 3.59958 61.2045 3.4707 61.5208 3.44043C61.4645 3.47104 61.3545 3.52953 61.3402 3.57407C61.7853 3.52 61.9493 3.43329 62.2351 3.28094L62.193 3.26666C62.6897 2.96876 62.5535 3.35848 62.8794 3.39588C62.9965 3.34657 63.4368 3.33943 63.3479 3.20103C63.3479 3.20103 63.4952 3.22687 63.6429 3.2551C63.7906 3.28094 63.9355 3.31359 63.9355 3.31359L63.8866 3.08847C64.2098 3.05786 64.2916 3.20341 64.5751 3.05106L64.5775 2.84668L64.1677 2.83274C64.0645 2.83036 63.9613 2.8256 63.8843 2.82322C63.8069 2.82084 63.7553 2.8256 63.7553 2.8256C64.1626 2.72222 63.8513 2.62156 64.3103 2.54879C63.8113 2.79975 64.6831 2.64264 64.7414 2.82764L65.0741 2.69637L64.9896 2.7552C65.2544 2.85382 65.3012 2.65183 65.6105 2.68957C65.2496 2.56715 64.9991 2.45255 64.5378 2.6168C64.8681 2.48996 65.5518 2.31414 65.7205 2.33523C66.0861 2.26722 66.3343 2.43385 66.6669 2.47601C66.0182 2.52532 66.8472 3.10241 65.5942 2.89599C65.6176 2.85858 65.7205 2.87219 65.7582 2.89837C65.5918 2.61204 64.9967 2.92184 64.7367 3.03678C64.8117 3.18232 64.5354 3.23401 65.011 3.2925C64.8491 3.21497 65.4068 2.91231 65.8634 3.07894L65.7768 3.39588L66.4232 3.46627L66.3621 3.47784C66.5895 3.69854 67.058 3.45913 67.4844 3.66317C67.6507 3.63052 68.0371 3.68425 68.3229 3.69378C68.6087 3.69854 68.7961 3.69378 68.5667 3.46593C68.9204 3.75499 69.321 3.59754 69.7704 3.66997L69.2599 3.40268C69.9673 3.35133 69.7378 3.43567 70.3679 3.23605C70.3937 3.33943 70.485 3.44723 70.3537 3.49892C70.7753 3.66555 71.2886 3.86517 71.757 4.0505C72.2136 4.2593 72.6424 4.41879 72.9445 4.42117C73.2372 4.56195 73.338 4.76123 73.4877 4.935C73.6354 5.11558 73.8136 5.29173 74.2328 5.46074C74.3242 5.49134 74.3357 5.40905 74.3805 5.36892C74.4246 5.32675 74.5044 5.32471 74.7176 5.54507C74.7339 5.58724 74.1249 5.39953 74.666 5.77292C75.1837 5.86405 75.4791 6.51663 76.0504 6.7795C76.231 7.06311 76.6642 7.41542 76.4418 7.47629C76.0996 7.10324 75.5446 6.64994 75.404 6.65742C75.5351 6.60811 75.1885 6.35238 75.5446 6.50711C75.0221 5.92764 75.0737 6.30307 74.5839 5.8127C74.5024 5.85011 74.7387 6.19731 74.8979 6.22758C74.7434 6.43434 73.7504 5.54745 74.0546 6.15753C74.5981 6.59859 75.1253 6.27485 75.4322 6.89206C75.1464 6.84751 74.9094 6.51901 74.4953 6.552L74.8371 6.92947C74.8371 6.92947 75.2492 6.9951 75.2445 7.00428L75.2024 7.02128C75.6922 7.80479 76.0035 7.35182 76.6757 7.83743C76.4839 7.35659 77.0834 7.59361 76.9123 7.25083C77.3248 7.64054 77.5753 7.97856 77.3788 8.15437C76.5212 7.53954 77.1326 8.2904 76.2989 7.79527C76.3362 7.97142 75.8817 7.91259 76.2286 8.3278C76.7765 8.6495 76.2636 8.03705 76.7412 8.43118C76.7484 8.47335 76.7555 8.5179 76.7134 8.5298C77.006 8.64712 76.896 8.80661 77.243 8.96168L77.1466 8.93583C77.2942 9.35819 77.5753 9.1868 77.6598 9.58535C77.7301 9.34867 77.9362 9.68397 78.1752 9.79925C78.0088 9.45919 78.1259 9.10927 77.634 8.52742C77.4534 8.56041 77.4232 8.65664 77.1608 8.48049L77.4979 8.82769C77.409 8.76648 77.3248 8.73384 77.2382 8.68215L76.9873 8.28564C77.4677 8.6495 77.4117 8.33732 77.7067 8.42166C78.0112 8.88653 78.0227 8.75492 78.1962 9.05996C77.9946 9.1749 78.5289 10.1301 78.6925 10.7494C78.6504 10.6627 78.5825 10.5593 78.552 10.5008C78.1986 10.1981 78.5499 10.8647 78.5031 10.9089L78.7679 11.1272C78.7231 11.0826 78.6318 11.0381 78.6762 11.1717C78.941 11.5213 79.1213 11.3948 79.3531 11.775C79.2547 11.8593 78.922 11.6152 78.9831 11.89C78.9268 12.026 78.7886 12.413 79.1308 12.8727C79.1963 12.887 79.2761 13.0139 79.3508 13.1662C79.3369 13.1475 79.3202 13.122 79.3087 13.1145V13.5158C79.0018 13.2978 79.1844 12.8707 78.8378 12.6758L78.6409 12.737C78.5357 12.5187 78.3133 12.2582 78.1538 12.1739C78.2804 12.5187 78.3626 12.5633 78.5802 12.9152C78.4865 13.0186 78.2757 12.8003 78.2454 12.7697L78.3765 12.7745C78.3483 12.5187 78.2241 12.3756 78.0811 12.2276C77.9453 12.0777 77.7698 11.9369 77.6269 11.674C77.5872 11.5917 77.6293 11.6318 77.6738 11.6295C77.2521 11.322 77.2474 10.7541 76.7368 10.5406L76.9147 10.5994C76.6431 10.3998 76.1441 9.99853 75.5727 9.70063L75.5093 9.74994C75.5188 9.8319 75.3687 9.66323 75.3124 9.55271C75.1766 9.47551 75.0455 9.39798 74.9213 9.32759C74.7903 9.26433 74.6684 9.2055 74.5581 9.15143C74.5794 9.23611 74.6215 9.32997 74.6918 9.40988C74.83 9.40036 75.1277 9.86012 75.2377 9.65813C75.3103 9.9329 75.7248 10.1067 75.7836 10.3012C75.7272 10.1301 75.8046 10.1393 75.9098 10.1934C76.013 10.2498 76.1441 10.3505 76.2076 10.3389C76.1702 10.5147 76.5212 10.7402 76.3481 10.813C76.3501 10.8949 76.3434 10.6062 76.1699 10.5569C75.8257 10.3767 76.4394 11.1649 76.048 10.9089C76.5073 11.2632 76.8118 11.9369 77.2637 12.345L77.1584 12.0307C77.2895 12.2535 77.5753 12.7979 77.5193 12.8755C77.4137 12.7136 77.3292 12.5048 77.1771 12.3099C77.0084 12.3895 77.4351 12.8353 77.3387 12.9152L77.9548 13.4151L77.8282 13.1261C78.0485 13.2461 78.1375 13.9313 78.2733 14.3959C78.093 14.3092 78.0299 14.1401 77.9759 13.9358C77.9219 13.7317 77.8842 13.4855 77.7111 13.2835C77.4558 12.9972 77.5638 13.5957 77.353 13.3141C77.3319 13.4219 77.4371 13.6144 77.5448 13.6896V13.8351C77.21 13.6474 76.9473 13.0326 76.5752 12.7347C76.6149 12.7558 76.6547 12.7721 76.6852 12.7697C76.6105 12.4249 76.4136 12.1338 76.1886 11.8828C76.2123 12.0753 76.2938 12.1056 76.3715 12.1759C76.3247 12.2185 76.1393 11.9671 76.0202 11.9039C76.1139 12.2042 75.9241 12.0331 75.9872 12.2185C75.8304 12.0868 75.7812 11.9321 75.6569 11.7281C75.6617 11.5754 75.828 11.7349 75.9146 11.6434C75.7038 11.4887 75.8773 11.2187 75.5398 11.0099C75.7904 11.4322 75.2445 11.0711 75.0832 10.9959L75.1229 11.0663C74.9213 11.0333 74.8395 10.9419 74.8677 10.7824C75.0527 10.881 75.1206 11.0711 75.2071 10.9279C75.1248 10.8161 75.0203 10.7226 74.9002 10.6531L75.0734 10.6814L74.6147 10.2216C74.4484 10.2356 74.2023 10.2403 74.0057 10.3131C73.9915 10.1158 73.7549 10.0546 73.6238 9.99173L73.7104 9.99615C73.5793 9.73362 73.0732 9.37213 72.9466 9.45205C72.9235 9.40274 73.01 9.39322 73.1367 9.3956C73.2606 9.4024 73.415 9.433 73.5417 9.44015C73.7925 9.46123 73.9331 9.3837 73.3448 8.95692C72.9024 8.62842 72.8437 9.04839 72.5253 8.97086C72.5253 8.97086 72.5602 8.94978 72.5511 8.91237C72.38 8.75254 72.2839 8.8464 72.0941 8.79505C72.1807 8.91237 72.3308 9.04329 72.4149 9.03411C72.3426 9.07662 72.2486 9.00351 72.1481 8.91679C72.0449 8.83484 71.923 8.75492 71.8154 8.76206C72.1413 8.67773 71.4851 8.45465 71.7031 8.4407C71.5435 8.25979 71.3422 8.12615 71.1294 8.07922C70.9438 8.03758 70.7519 8.03285 70.5645 8.06528C70.4148 7.65686 70.0705 7.8541 69.6513 7.56776C69.7192 7.60279 69.8689 7.60755 69.9578 7.67556C70.3024 7.59599 69.5012 7.40351 69.986 7.39161C69.8852 7.38719 69.9415 7.48343 70.0447 7.49023C70.2155 7.52084 70.391 7.5256 70.389 7.4246C70.389 7.4246 70.3143 7.33278 70.2274 7.26273L70.0586 7.11242L70.2155 7.11922L69.6815 6.67374C69.6509 6.70435 69.6957 6.76998 69.7168 6.805C69.5457 6.71829 69.3654 6.62681 69.1733 6.57036C68.9792 6.51953 68.784 6.47338 68.5877 6.43196C68.3932 6.38979 68.201 6.35 68.0184 6.30987C67.8409 6.29159 67.6642 6.26583 67.4888 6.23268C67.3812 6.49997 66.9806 6.46494 66.5288 6.4697C66.0766 6.48841 65.5732 6.44148 65.3175 6.62681C65.4533 6.46256 65.5355 6.18813 65.4442 6.07761C65.5637 6.05653 65.8166 5.85487 66.0929 5.91336C66.1353 6.0028 66.4653 6.1174 66.2406 6.20684C66.9973 6.18099 66.1564 5.96539 66.3906 5.77496C65.9595 5.78686 65.6176 5.83855 65.3223 5.95587C65.0269 6.07319 64.7791 6.19731 64.5235 6.27247L64.5048 6.20922C64.5048 6.20922 64.1209 6.34048 64.1229 6.35476C64.2849 6.35 64.369 6.44386 64.3572 6.50711C64.348 6.5775 64.2472 6.61967 64.0411 6.60573L64.088 6.58192C63.8418 6.49079 63.3852 6.71353 63.0268 6.74651C63.0244 6.73971 62.8278 6.97878 62.8278 6.97878C62.4812 7.04917 62.3828 6.73223 62.2164 6.57274C61.6356 6.67612 61.4129 7.0842 61.0945 7.36373C60.9865 7.33312 60.7173 7.36135 60.5391 7.40351C60.3592 7.43854 60.2441 7.43616 60.4152 7.25559C60.2044 7.42902 60.2067 7.67556 60.1436 7.87994C60.1107 7.9806 60.0638 8.0697 59.963 8.13567C59.9138 8.16831 59.8482 8.19178 59.7661 8.21048C59.6706 8.23797 59.5726 8.2553 59.4735 8.26217L59.6116 8.02073C59.4361 8.13805 59.2508 8.27883 59.0634 8.422C58.8784 8.56721 58.6866 8.71037 58.5294 8.87462C58.2086 9.19394 57.9064 9.433 57.7214 9.51054C57.6417 8.91917 56.5995 9.82952 56.1449 9.61834C56.2549 9.66323 56.0583 9.93766 56.0702 10.0128C55.9786 10.0268 55.8567 10.0808 55.8452 10.2427C56.1473 10.055 56.0651 10.7562 56.351 10.1465C56.3815 10.6253 56.2831 11.0612 55.8825 11.6084L55.7257 11.4768L56.0981 11.0779C55.9436 11.0218 56.1378 10.8174 56.166 10.6885C55.967 10.8575 55.8591 10.9232 55.7912 10.9371C55.7209 10.949 55.6883 10.8997 55.6578 10.8575C55.5967 10.7681 55.5498 10.6933 55.2334 11.1364C55.2759 11.2986 55.2735 11.2119 55.1472 11.4676C55.2198 11.3571 55.1214 11.2564 54.99 11.4275L54.9995 11.6832C54.7653 11.7536 54.7863 11.5802 54.8566 11.4275C54.9221 11.2704 55.0019 11.1133 54.805 11.1765C54.9292 10.7378 55.3227 10.0737 55.046 10.0244C54.5192 10.543 55.0345 10.8432 54.4961 11.3666L54.3623 11.3734C54.2897 11.641 54.4187 11.7726 54.437 11.9508C54.3766 11.9297 54.3039 11.9603 54.2007 12.0937C54.2031 12.3497 54.1658 12.5327 54.1634 12.7296C54.161 12.9248 54.1634 13.1145 54.2075 13.3519C54.271 13.0982 54.3365 12.9248 54.4044 12.7932C54.4794 12.6667 54.566 12.5867 54.6458 12.5044C54.8121 12.3426 54.9622 12.1739 55.173 11.6788C55.1377 11.857 54.8216 12.5327 55.0392 12.7064L54.8685 12.5963C54.77 12.9316 54.7347 13.2835 54.4913 13.6307L54.4981 13.3492C54.4421 13.6331 54.2686 13.8069 54.1281 13.9851C54.0062 14.1704 53.9081 14.3581 53.9923 14.6234C54.0626 14.4826 54.0999 14.3629 54.1047 14.2595C54.0931 14.5649 53.9431 14.8886 53.812 15.1773L53.9804 15.8857C53.8847 15.8551 53.7767 16.2448 53.6691 16.0197C53.6098 16.1062 53.5698 16.2046 53.552 16.308C53.5472 16.3999 53.5588 16.4815 53.5802 16.5593C53.6199 16.7141 53.6902 16.8477 53.6949 16.9817C53.4091 17.4136 53.6596 16.5685 53.3904 16.4679C53.2973 16.7815 53.2422 17.1052 53.2264 17.4319C53.2309 17.7394 53.2943 18.0165 53.3738 18.2039C53.4206 18.0726 53.4607 18.0118 53.5096 18.0209C53.444 18.0376 53.4488 18.3001 53.4373 18.446L53.5635 18.549C53.4607 18.7885 53.3833 18.7578 53.2967 18.5467C53.2424 18.7837 53.5354 19.0557 53.3503 19.3023C53.2673 19.1028 53.2313 18.8868 53.2451 18.6711C53.259 18.4671 53.2777 18.2862 53.2332 18.178C53.2757 18.6031 53.1585 18.8095 53.0859 19.0557C53.0061 19.2999 52.9172 19.5862 53.0435 20.1212C52.9827 20.1422 52.8306 19.9685 52.8635 20.1796C52.9874 20.6608 53.1538 20.2735 53.3225 20.4051C53.1748 20.0531 53.2522 19.8678 53.4115 19.6447L53.5235 19.7338C53.4726 19.7529 53.4698 19.9804 53.4301 20.0531L53.6576 20.0882C53.4138 20.0814 53.2872 20.4684 53.4206 20.7428C53.5496 20.4286 53.5544 20.5081 53.8144 20.3932C54.1376 20.736 53.6151 20.8792 53.9784 21.259C53.8847 21.2474 53.7652 20.8744 53.7652 21.2168C53.826 21.4889 53.9994 21.4117 54.1047 21.5736C53.8565 21.4209 53.7251 21.5079 53.4301 21.3321C53.313 20.8343 53.3972 21.1301 53.2332 20.6513L53.128 21.1019C53.0295 20.6724 52.8517 20.8203 52.7695 20.7969C52.6782 21.6018 53.1633 21.3107 53.2264 21.7919C53.4182 21.984 53.1419 21.3461 53.3738 21.665C53.4559 22.1061 53.5286 21.733 53.7346 22.1908L53.6246 22.1364C53.5496 22.3173 53.7183 22.4254 53.8046 22.5801C53.9268 22.7373 54.402 22.1697 54.6716 22.8665C54.6061 22.8522 54.5684 22.8522 54.5473 22.8597C54.5473 22.8597 54.0884 22.8359 53.6172 22.7866C53.3997 22.7645 53.1828 22.7379 52.9664 22.707C52.7882 22.6811 52.6758 22.6601 52.6758 22.6601C52.8116 23.0749 52.9756 23.5163 53.1161 23.9904C53.313 24.4359 53.4726 24.9266 53.6783 25.3982C53.5988 25.5812 53.4373 25.4639 53.2991 25.2996C53.1677 25.133 53.0458 24.9313 52.9922 24.9946L52.8445 24.5301C52.9851 24.4971 53.3178 25.4122 53.3527 24.915C53.1304 24.5607 53.0037 24.2859 52.8795 24.0162C52.7597 23.7002 52.5862 23.4073 52.3669 23.1504C52.2518 23.3194 52.3574 23.568 52.4837 23.8425C52.5495 23.9785 52.6079 24.1264 52.6687 24.2675C52.7322 24.408 52.7739 24.5511 52.7739 24.6991C52.7016 24.4879 52.5774 24.34 52.4674 24.1876C52.6361 24.6569 52.8187 25.166 53.0435 25.6941L53.1793 25.7641C53.0014 25.4241 52.9406 25.1565 52.9287 25.1262C53.1069 25.607 53.5238 25.8607 53.7367 25.7665L53.6993 25.687L53.8565 25.7992L54.0018 26.1093ZM78.756 22.0405C78.7699 22.0746 78.7915 22.1051 78.8192 22.1296C78.791 22.1037 78.7628 22.118 78.756 22.0405ZM51.177 16.8103C51.1441 16.9817 51.1017 17.1504 51.0714 17.3218L51.008 17.838C50.9706 18.1828 50.9143 18.5256 50.9051 18.8609C51.4272 17.6455 51.8373 16.9229 51.7368 18.8167L51.7786 18.9408C51.8139 18.6922 51.8702 18.2675 51.8465 17.8614C51.7742 17.6948 51.5749 17.3289 51.453 16.9977C51.3172 16.6671 51.1909 16.3645 51.1628 16.3669C51.0103 16.4675 51.1298 16.6671 51.0548 16.8804L51.177 16.8103ZM52.0457 16.456C52.1534 16.0992 52.0362 16.1628 51.952 16.0877C51.9453 16.2213 51.9358 16.3529 51.9286 16.4842C51.9592 16.4373 51.9965 16.4206 52.0457 16.456ZM51.8536 16.0921C51.8444 16.1346 51.8349 16.1696 51.8186 16.186L51.8536 16.0921ZM52.2637 23.3779C52.2566 23.364 52.2518 23.3568 52.245 23.3426C52.2684 23.4296 52.2919 23.5163 52.3173 23.6078C52.3173 23.568 52.3058 23.5 52.2637 23.3779ZM52.2518 22.5778L52.0597 22.5404C52.0739 22.6223 52.0902 22.707 52.1045 22.7937C52.1724 22.742 52.2331 22.6927 52.2518 22.5778ZM52.3503 20.1212C52.1323 19.9943 52.0997 19.492 51.8536 19.4733C51.7905 19.4427 51.7718 19.5533 51.7575 19.6753C51.7575 19.8114 51.7575 19.9569 51.7599 20.1116C51.7972 20.114 51.8278 20.1422 51.8679 20.1892C51.8842 20.0341 51.9449 19.9307 52.095 19.978C51.7976 20.3932 52.3689 20.2922 52.3407 20.703C52.5281 20.804 52.4392 20.2361 52.3503 20.1212ZM74.186 8.00168C74.1812 8.02549 74.1812 8.0935 74.1836 8.18022L73.872 8.09792C73.4857 7.75548 73.3594 7.17567 72.7758 7.19676C72.6281 7.01856 72.6071 6.81929 72.5745 6.64586C72.6658 6.71115 72.7476 6.77678 72.8111 6.83799C73.5182 6.9951 73.5885 7.22736 73.6259 7.41746C73.6635 7.61231 73.6564 7.79765 74.186 8.00168ZM68.8454 4.89522C68.8615 4.89582 68.8775 4.89298 68.8925 4.88689C68.9074 4.88079 68.9208 4.87157 68.9319 4.85985C67.6365 4.99145 66.6785 5.04756 66.0369 5.01016C66.154 5.19787 66.7067 5.34546 66.9596 5.45564C66.9596 5.45122 66.709 5.62703 66.709 5.63417L66.578 5.46992L66.1632 5.63417C66.2664 5.77496 66.5895 5.76339 66.7912 5.87561C66.8099 5.83821 67.5173 5.7117 67.7349 5.61785L67.2009 5.39239C67.3415 5.48182 68.0934 5.51923 68.3908 5.55222C68.4051 5.50529 68.2971 5.40191 68.1661 5.35736C68.0347 5.31281 67.8874 5.30567 67.8358 5.40905C67.7984 5.2516 68.3956 5.34104 68.049 5.1251C68.5313 5.03838 69.2059 5.3832 69.5084 5.52637L69.4893 5.7821C69.7986 5.99566 69.8152 5.57568 70.1758 5.86405C69.6604 5.72803 70.1663 6.15515 69.7684 6.0283C69.8618 6.16433 69.6862 6.28199 70.0749 6.40373C70.5129 6.2184 70.4076 6.72781 70.8082 6.60097C70.9583 6.78868 70.5224 6.6853 70.8809 6.90838C71.3867 6.95769 71.422 6.83561 71.5578 6.63157C71.164 6.36632 70.9535 6.69006 70.6419 6.4765C70.6419 6.4765 70.8503 6.46018 71.0635 6.44828L71.4946 6.42482C71.3938 6.30987 71.3001 6.25818 71.2135 6.23506C71.3633 6.27927 71.5089 6.28199 71.6491 6.25614C71.7289 6.24186 71.8015 6.2303 71.867 6.22316C71.4641 6.03068 71.1103 5.85249 71.0893 5.72803L71.1925 5.64607C71.094 5.46754 70.8082 5.46516 70.6677 5.50291C70.2813 5.37368 69.855 5.39239 69.8197 5.21895L69.9979 5.16965C69.7589 5.09483 69.6231 5.07103 69.4683 5.0428C69.2596 4.99829 69.0519 4.94909 68.8454 4.89522ZM54.0578 9.78735C54.3226 9.79925 54.5636 9.79211 54.8705 9.67241C55.0475 9.5961 55.2119 9.49324 55.358 9.36737C55.5359 9.22455 55.7138 9.01303 55.9623 8.78077L55.9035 8.87462C56.2505 8.74336 56.4307 8.45703 56.6392 8.15199C56.8548 7.86328 57.1192 7.57729 57.5388 7.44568C57.3113 7.81873 57.3161 7.79765 57.1966 8.35127L57.459 8.00168C57.5059 8.26013 57.7679 7.91259 58.0212 7.73643L57.9648 8.12853C57.7751 8.17069 57.3769 8.43118 57.4285 8.47335C57.4614 8.43118 57.2832 8.45465 57.0584 8.52742C56.85 8.6189 56.5968 8.76682 56.4752 8.93107C56.6348 9.04125 57.199 8.42166 57.1263 8.90999C57.2788 8.58591 57.4471 8.73146 57.6722 8.47131C57.4919 8.76682 57.7659 8.72466 57.6627 8.97324L58.0541 8.60019C58.101 8.6444 57.5154 9.17728 58.0073 9.10008C58.1173 8.89605 58.6373 8.65868 58.5294 8.48287L58.5739 8.52708C58.9347 8.35841 58.5671 8.19416 59.0495 8.03705C59.0026 7.94523 58.8831 7.93367 58.7426 8.04623C58.6397 8.16593 58.6886 8.28564 58.4523 8.48287C58.3515 8.45907 58.4286 8.40534 58.492 8.35127C58.5576 8.3023 58.6092 8.24347 58.4428 8.18702C58.2717 8.13091 57.8501 8.77362 57.8525 8.38901L58.2086 8.17784C58.0962 7.99726 58.3586 7.84457 58.2626 7.71331C58.4452 7.51369 58.7708 7.58647 58.9065 7.29537C58.9371 7.12432 58.6465 7.00938 59.0824 6.8754C59.5437 6.99986 60.4009 6.47888 60.7594 6.34048L61.0286 6.10346C60.9583 5.9909 60.4315 6.33572 60.5768 6.10822L61.0568 5.88038L61.0452 5.96981C61.216 5.93002 61.3542 5.77734 61.495 5.693C61.3779 5.87595 61.0076 5.96029 61.1457 6.13406C61.3895 6.09427 61.4434 6.14086 61.6471 6.04735C61.605 6.07319 61.5697 6.10346 61.584 6.13168C62.0806 6.0987 61.9774 5.78448 62.083 5.68586C62.5067 5.29139 61.5229 5.56616 61.5205 5.33866C61.5205 5.33866 62.966 4.834 62.9775 4.87855C62.8604 4.96561 62.7457 5.0547 62.8088 5.13224C63.1907 5.17203 62.8489 5.29411 63.3547 5.20501C63.315 5.06423 63.4671 4.99383 63.6779 4.93296C63.7831 4.90236 63.9006 4.86937 64.0129 4.83639C64.1277 4.80578 64.2377 4.78027 64.3269 4.73335C64.5096 4.84353 64.5445 4.86461 64.1698 4.88807C64.2309 5.07341 64.7228 4.97717 64.9007 4.98431C65.0015 4.93262 65.177 4.89522 65.2897 4.84829C65.1373 4.76361 65.198 4.63473 65.5307 4.54801L65.5494 4.51061C65.2778 4.48442 64.9265 4.44701 64.5989 4.42559C64.2706 4.40927 63.9661 4.41403 63.8092 4.54801L63.8958 4.43987C63.2328 4.38376 62.582 4.96085 62.2303 4.71192C62.2256 4.56672 62.0993 4.71192 62.0616 4.51027L61.64 4.78232L61.7126 4.66737C61.7126 4.66737 61.5205 4.72859 61.3263 4.79184C61.1318 4.84591 60.9468 4.93738 60.9468 4.93738L60.9536 4.89284C60.7126 5.13511 60.4783 5.3839 60.2509 5.63893C60.2838 5.72123 60.3167 5.73993 60.2254 5.84297C60.1478 5.90866 60.0589 5.9596 59.963 5.99328C59.7827 6.05177 59.614 5.9909 59.3798 6.04735L59.7029 5.87834C59.7851 5.83617 59.8645 5.79366 59.9256 5.76339C59.9864 5.73041 60.0285 5.71409 60.0285 5.71409C60.0261 5.55426 59.9066 5.42061 59.5319 5.48862C59.6656 5.41823 59.6771 5.28221 59.4993 5.34784C59.4969 5.39273 59.0939 5.65049 59.3071 5.6811C59.0002 5.86201 58.5341 5.97219 58.0728 6.20684C57.8386 6.31702 57.5948 6.4391 57.3653 6.5843C57.1389 6.74531 56.9369 6.93818 56.7655 7.15697C57.2903 6.5469 56.1378 7.37529 56.8028 6.7982C56.4844 6.88492 56.4121 7.0138 56.3605 7.15935C56.3089 7.30966 56.2597 7.462 56.0254 7.66162C55.9293 7.62863 56.2783 7.4433 56.2926 7.23212C55.8499 7.51131 55.6062 7.90545 55.3533 8.25979C55.1024 8.61686 54.9221 9.02017 54.5568 9.35343L54.3857 9.26161C54.271 9.41192 54.1634 9.59487 54.0578 9.78735ZM53.1606 11.5261C53.0859 11.6995 52.9942 11.8661 52.9287 12.0494C52.9382 12.0328 52.9477 12.0188 52.9569 12.0025L52.8493 12.5748C53.0648 12.298 53.3412 12.2018 53.2241 12.6643C53.1725 12.5939 53.0272 12.6758 53.0577 12.5068C52.8211 12.7391 52.4134 13.3305 52.7556 13.2788C52.7743 12.6218 53.1467 13.3026 53.1701 12.7955C53.2312 13.103 53.0411 13.2883 53.0224 13.5345C52.9732 13.2461 52.6734 13.4478 52.4793 13.781C52.465 13.9524 52.2705 14.3557 52.2494 14.6353C52.4487 14.5979 52.4626 14.8441 52.6548 14.4496C52.6486 14.5496 52.6289 14.6483 52.5964 14.7431C52.5706 14.8556 52.5261 14.9777 52.4487 15.0998C52.4463 14.9849 52.4745 14.7924 52.4114 14.7876C52.2145 14.9168 52.1676 15.1256 52.0715 15.2219L52.0294 15.5007C52.0496 15.4775 52.0753 15.4598 52.1041 15.4494L52.1768 15.7826C52.2005 15.3671 52.301 15.6184 52.3995 15.6466C52.205 15.5902 52.3078 15.8949 52.28 16.0288L52.5658 15.785C52.6008 15.867 52.5305 15.9795 52.4813 16.071C52.4392 16.1628 52.4181 16.2329 52.5281 16.2166C52.7437 15.6228 52.7838 15.3929 52.8561 14.825L52.6385 15.0012C52.704 14.3442 53.0367 14.7101 53.2614 14.0391C53.1959 13.6943 53.6807 13.0584 53.4091 12.9105C53.4583 13.0326 53.8378 12.6241 53.8378 12.345C53.7346 11.979 54.1444 11.2306 53.9034 11.3805C53.7811 11.5754 53.7557 11.9155 53.5028 11.9838L53.6854 11.5706L53.3996 11.7468C53.5262 11.6434 53.3904 11.5778 53.1606 11.5261ZM49.7855 21.9044V21.9255L49.7831 21.9017L49.7855 21.9044Z" fill="#AE7B3C"/>
<path class="bigChar" d="M78.7512 13.0091C78.8823 13.0982 78.9736 13.4267 79.0931 13.307C79.0184 13.3423 78.9597 13.2015 78.9081 13.0866C78.8497 12.9737 78.7933 12.8846 78.7512 13.0091ZM78.7512 13.4406C78.7957 13.4478 78.8497 13.408 78.9057 13.5488L78.7254 13.1781L78.7512 13.4406ZM77.8377 14.2173C78.0203 14.3581 78.128 14.4543 78.224 14.7478C77.8822 14.9777 77.9429 14.3091 77.5451 14.3091C77.6198 14.5717 77.7556 14.7124 77.8985 14.844C78.0299 14.9777 78.1565 15.1066 78.2312 15.3249C78.278 15.1957 78.2899 14.8862 78.2006 14.6329C78.114 14.3816 77.9833 14.1728 77.8377 14.2173ZM77.2803 14.1707L77.4677 14.419L77.4792 14.3839L77.2918 14.133L77.2803 14.1707ZM75.7645 6.2772C75.8188 6.1575 75.5493 6.11057 75.4298 6.05888C75.5069 6.12689 75.6006 6.23945 75.7645 6.2772ZM77.1465 30.1332C77.1465 30.1332 77.2637 29.9925 77.4419 29.7813C77.615 29.5677 77.8588 29.2957 78.0743 29.0025C78.351 28.6028 78.6243 28.2007 78.8942 27.7963C78.6623 28.1432 78.4304 28.472 78.1656 28.8522C78.039 29.0467 77.8846 29.2345 77.7111 29.4412C77.5403 29.6521 77.3553 29.8799 77.1465 30.1332ZM66.908 3.46625C67.2807 3.43564 67.557 3.41184 67.8381 3.37239C68.1192 3.34417 68.4071 3.302 68.789 3.36049C68.3158 3.13061 67.9573 3.19386 67.6365 3.23841C67.3109 3.28771 67.0183 3.33464 66.6058 3.19624L66.908 3.46625ZM67.2759 2.49707C67.3764 2.73409 66.6503 2.72219 66.7487 2.90753C67.2688 2.87964 67.0112 2.68955 67.4796 2.77626L67.2759 2.49707ZM69.4941 6.98351L69.2856 7.03724L69.4357 7.04676L69.4941 6.98351ZM63.7179 2.70383L63.7973 2.63786L63.3991 2.61915L63.7179 2.70383ZM63.8771 2.5746C63.8771 2.5746 63.7973 2.6331 63.7973 2.63548L63.8771 2.57426V2.5746ZM69.1193 7.38716L69.3467 7.52557L69.5036 7.46674L69.1193 7.38716ZM67.037 5.64367L67.3017 5.6083C67.2478 5.61544 66.9103 5.46547 67.037 5.64367ZM61.3521 3.05069L61.0052 3.23365L61.05 3.24793L61.3942 3.06497L61.3521 3.05069ZM65.0531 6.21837C65.2262 6.3918 64.5727 6.29114 64.9217 6.43669C65.2238 6.39214 65.0999 6.30305 65.0531 6.21837ZM61.1528 5.66713C61.1086 5.68184 61.0685 5.70677 61.0357 5.7399C61.0802 5.71406 61.1202 5.68821 61.1528 5.66713ZM61.1528 5.66713C61.2862 5.61782 61.4387 5.63414 61.5205 5.56375C61.3215 5.52634 61.2727 5.5896 61.1528 5.66713ZM59.6632 6.31223L59.7851 6.26802C59.7053 6.40609 59.7545 6.3663 59.8292 6.25102C59.949 6.18572 59.9185 6.13642 59.9185 6.09425C59.9324 6.06126 59.949 6.02828 59.9653 5.99325C59.9397 6.02945 59.9148 6.06619 59.8907 6.10343C59.6982 6.19253 59.5858 6.2585 59.6632 6.31223ZM52.5729 7.99928C53.0108 7.61229 53.1348 7.52557 53.2193 7.64289C53.6175 7.27222 53.3833 7.16884 53.5683 6.88251C53.1677 7.36132 53.0343 7.41063 52.5729 7.99928ZM53.5706 6.88251C53.6151 6.82844 53.6643 6.78389 53.7183 6.7254C53.6504 6.78389 53.6012 6.83082 53.5706 6.88251ZM61.8766 7.09131C61.8766 7.09131 61.8297 7.1617 61.7853 7.23686C61.7411 7.30963 61.6987 7.38478 61.6987 7.38478L61.7785 7.32357C61.7785 7.32357 61.8742 7.08655 61.8769 7.09131H61.8766ZM51.9941 8.63995C52.0668 8.558 52.1652 8.41721 52.2542 8.37947C52.1605 8.26452 51.9215 8.72225 51.9941 8.63995ZM55.4211 8.86984C55.5101 8.88854 55.7022 8.64233 55.8193 8.58146C55.6764 8.69164 55.3719 8.60017 55.4211 8.86984ZM51.5586 10.327C51.6197 10.2427 51.7833 10.1556 51.8468 10.2777C51.8655 10.1134 51.7623 9.80161 51.5582 10.327H51.5586ZM54.8026 9.51289L54.8848 9.49419L55.0416 9.18439L54.8026 9.51289ZM57.07 10.1345C57.1966 9.79208 56.3978 10.1957 56.721 9.70979C56.0699 10.1111 56.9179 9.82949 56.5312 10.2073C56.7773 10.0056 57.0465 10.0665 57.07 10.1345ZM56.5292 10.2073C56.4918 10.2355 56.4541 10.2685 56.4188 10.3083C56.4633 10.2709 56.501 10.2379 56.5292 10.2073ZM53.0366 13.6685C53.039 13.612 53.0319 13.5722 53.0248 13.5324C53.0224 13.5766 53.0248 13.6215 53.0366 13.6685ZM55.5454 11.6175L55.6391 11.0707C55.6061 11.2564 55.4632 11.5121 55.3604 11.7325C55.2477 11.9484 55.2219 12.1596 55.3346 12.2018C55.5009 11.9977 55.653 11.7233 55.6391 11.5495L55.5454 11.6175ZM48.9188 15.9914L48.8645 15.6864L48.7803 16.0407C48.8346 15.9469 48.9867 16.1604 48.9188 15.9914ZM48.764 16.1111L48.7803 16.0431C48.7704 16.0645 48.7649 16.0876 48.764 16.1111ZM53.3527 12.6949C53.4444 12.5445 53.498 12.4153 53.5285 12.2511C53.4559 12.2864 53.2288 12.6646 53.3527 12.6949ZM49.0756 18.0328L49.057 17.5635L49.0498 18.075L49.0756 18.0328ZM48.6866 20.2453L48.6445 20.3323C48.6445 20.3323 48.6703 20.4309 48.7056 20.5268C48.743 20.6231 48.7783 20.7193 48.7783 20.7193L48.8132 20.6302C48.8132 20.6302 48.7735 20.5363 48.743 20.4401L48.6866 20.2453ZM53.6175 17.7441C53.6457 17.5163 53.4651 17.3146 53.4043 17.3687C53.4043 17.3687 53.3995 17.3969 53.3948 17.4391C53.388 17.4812 53.3809 17.5377 53.3833 17.5938L53.3785 17.8216C53.5846 17.723 53.369 17.6948 53.4488 17.4367C53.4372 17.4391 53.6175 17.7441 53.6175 17.7441ZM57.5877 33.2703C57.405 33.3172 56.8615 32.8973 56.8992 32.7731C57.0044 32.7731 57.3395 32.916 57.1871 32.7306H56.5641C56.0746 32.191 57.2529 32.6534 57.5948 32.7238C57.3042 32.5242 57.089 32.4423 56.8639 32.36C56.6392 32.2804 56.4002 32.2029 56.1028 31.9682C56.2668 32.1229 56.3275 32.2804 56.393 32.3977C56.281 32.6157 55.763 32.0971 55.3441 31.806C55.5454 32.0808 55.3441 32.0362 55.0956 31.9611C55.0664 31.9438 55.0334 31.9341 54.9995 31.9329C54.9709 31.9239 54.9421 31.9161 54.9129 31.9094L54.9618 31.9468C54.9431 31.9638 54.934 31.9964 54.9431 32.0573C55.3346 32.2709 55.4914 32.6252 55.7209 32.7987C55.7185 32.5572 55.913 32.7 56.1799 32.8762C56.447 33.0547 56.7654 33.2985 56.9484 33.3407L57.3185 33.5216L57.4495 33.5988C57.4566 33.6505 57.3959 33.674 57.1569 33.6179C57.351 33.6716 57.939 33.9647 57.9343 33.8358L58.6044 34.1552C58.7731 34.2347 58.9394 34.317 59.0729 34.3592C59.2039 34.4085 59.2908 34.4391 59.2908 34.4391C59.3281 34.4697 59.3655 34.5024 59.3869 34.5398C59.4429 34.535 59.4592 34.5211 59.4592 34.5024C59.4592 34.5024 59.8411 34.6384 60.4104 34.8448C60.701 34.9319 61.0452 35.0138 61.4129 35.1077C61.7805 35.2039 62.1719 35.3025 62.5749 35.3518C62.9755 35.4103 63.3733 35.4692 63.7481 35.5229C64.1253 35.5419 64.4766 35.5603 64.7788 35.5773C65.0809 35.5889 65.3318 35.6028 65.5073 35.6052C65.6831 35.5957 65.784 35.5909 65.784 35.5909C65.4652 35.5865 65.1933 35.476 64.8704 35.4222C65.362 35.1992 64.3432 35.3518 64.4977 35.124C64.718 35.0512 65.0296 35.0914 65.2146 35.157C65.2849 35.042 65.0225 34.9247 65.0578 34.7863C64.6735 34.6945 64.4485 34.7863 64.2166 34.8849C63.9847 34.988 63.7481 35.0937 63.3713 34.9856C63.4202 34.8496 63.6663 34.7629 63.172 34.7067L63.301 34.6948C62.4832 34.7275 62.7456 34.2912 62.1763 34.5843L62.2307 34.3871C61.8508 34.4507 61.1647 34.2749 60.7709 34.1997L60.8062 34.1691C60.2417 34.1106 60.0896 34.0542 59.928 33.9933C59.7684 33.9205 59.5882 33.8573 58.9887 33.6532L59.0847 33.6576C59.1408 33.6624 59.2205 33.6624 59.3 33.66L59.614 33.6505C59.2484 33.4159 59.0634 33.6036 58.7918 33.4441C58.8267 33.4182 58.8267 33.2516 59.1007 33.3431C59.1007 33.3431 58.7215 33.2611 58.3443 33.1812C58.1522 33.1391 57.9601 33.0945 57.8175 33.0639C57.6722 33.0313 57.5832 32.9959 57.5832 32.9959C57.1966 32.9394 57.5785 33.1649 57.5877 33.2703Z" fill="#AE7B3C"/>
<path class="bigChar" d="M56.1004 31.9682C56.0329 31.9032 55.9591 31.8451 55.8801 31.7948C55.9599 31.8628 56.0325 31.9165 56.1004 31.9682ZM66.2382 35.5654L65.786 35.5889C65.9265 35.5957 66.0745 35.5912 66.2382 35.5654ZM54.107 30.9052C54.236 31.1657 53.8541 30.8746 53.7652 30.8984L54.4984 31.5598C54.5473 31.4965 54.6763 31.4965 54.7065 31.4285L54.107 30.9052ZM54.6152 31.8648C54.6739 31.8485 54.7883 31.872 54.9106 31.907C54.9106 31.907 54.7979 31.8298 54.6974 31.7404C54.5965 31.6513 54.4957 31.5601 54.4957 31.5601C54.4631 31.6067 54.4723 31.689 54.6152 31.8648ZM57.2343 28.5846L57.3371 28.6693L57.5364 28.7417C57.5364 28.7417 57.459 28.7043 57.3816 28.6689C57.3304 28.6444 57.2811 28.6162 57.2339 28.5846H57.2343ZM58.7544 30.0792C58.677 29.8915 58.3678 29.8095 58.2602 29.7813C58.567 29.9642 58.4122 29.9221 58.7544 30.0792ZM59.0657 28.7771L59.3679 28.8801L59.3539 28.8451L59.0657 28.7771ZM69.3535 34.3075L69.5481 34.2443C69.4813 34.2589 69.4162 34.2801 69.3535 34.3075Z" fill="#AE7B3C"/>
<path class="bigChar" d="M65.8142 34.9764C66.8357 35.157 65.1536 35.1991 65.4699 35.4739L66.0297 35.3515L65.9853 35.4314L66.6693 35.3702C66.5193 35.2437 66.414 35.2413 66.4374 35.0981C67.3438 35.0961 66.7325 35.2719 67.4185 35.3682L68.4329 35.1876L68.3582 35.2413C68.4424 35.225 68.4774 35.2015 68.5032 35.1733C68.5032 35.1733 68.5575 35.1641 68.6484 35.1451C68.7421 35.1315 68.8759 35.1029 69.0304 35.056C69.342 34.9669 69.7589 34.8496 70.1757 34.7299C70.5926 34.6149 70.9861 34.4272 71.2906 34.317L71.792 34.1174C72.3284 33.7841 71.3775 34.0096 71.7217 33.6505C71.0543 33.8994 70.0328 34.1222 70.0423 34.3803C70.0539 34.3357 70.0773 34.2511 69.93 34.2534L69.5925 34.5819L69.9955 34.554C69.8244 34.7183 69.4028 34.8754 68.9883 34.9764C68.5734 35.0726 68.1633 35.0655 68.0326 35.0186C68.7795 34.8098 68.3511 34.6455 69.4099 34.5306C69.3464 34.4741 69.1312 34.399 69.3488 34.3027C68.7703 34.5163 68.1895 34.5799 67.6107 34.6734C67.037 34.7979 66.449 34.8149 65.8142 34.9764ZM76.861 30.1193L76.8726 30.1451C76.8773 30.1193 76.875 30.1077 76.861 30.1193ZM76.5355 30.3747L76.2775 30.9851L76.9615 30.3305L76.875 30.1451C76.8515 30.2366 76.6757 30.5298 76.5307 30.5627L76.5351 30.375L76.5355 30.3747ZM75.8514 31.5765C76.1817 31.1987 75.9988 31.0344 75.7411 31.1351C75.9991 30.7596 76.0762 31.1633 76.1417 30.7787C76.0222 30.6614 75.6922 31.1024 75.6077 31.201L75.8514 31.5765ZM72.7337 33.4301L72.8155 33.287L72.4995 33.4111L72.7337 33.4301ZM72.8155 33.287L73.1295 33.1625C73.0755 33.1108 73.0216 33.0591 72.9513 33.0404L72.8155 33.287ZM73.9236 32.7708C74.0546 32.7119 74.1951 32.6392 74.3639 32.5429L73.9236 32.7708ZM73.5627 32.9207L73.5885 32.9394L73.9236 32.7708C73.7946 32.8269 73.6798 32.8762 73.5627 32.9207ZM73.1295 33.1601C73.2538 33.2798 73.3943 33.4016 73.7949 33.1037L73.5885 32.9418C73.5885 32.9418 73.1343 33.172 73.1295 33.1601ZM60.9773 30.0346L61.2771 30.0489L61.2584 30.0159L60.9583 30.002L60.9773 30.0346ZM62.5114 30.6773C62.5864 30.6682 62.6472 30.6542 62.7015 30.6355C62.6238 30.6355 62.5606 30.6444 62.5114 30.6773Z" fill="#AE7B3C"/>
<path class="bigChar" d="M63.8819 29.833C64.1697 30.0418 63.4202 29.9758 63.9895 30.138C64.0248 30.2951 63.7179 30.4407 63.4484 30.3257C63.4952 30.1897 63.7342 30.2764 63.5865 30.1098C63.376 30.2434 63.3241 30.1241 63.3499 30.342C63.0104 30.4339 62.9473 30.5532 62.6988 30.6355C62.802 30.6355 62.9215 30.6705 63.062 30.7011C63.2026 30.727 63.3574 30.7576 63.5139 30.7855C63.8303 30.8324 64.163 30.9028 64.4274 30.7644C64.7227 30.523 64.5798 30.1659 64.6124 29.8C64.5961 29.7507 64.425 29.7296 64.2566 29.7085C64.0855 29.6898 63.9121 29.7153 63.8819 29.833ZM63.467 29.4011C63.3336 29.3637 63.2871 29.3752 63.2002 29.38C63.1954 29.5116 63.3547 29.3943 63.467 29.4011ZM66.9456 32.2896C66.9738 32.2335 67.2759 32.1206 67.1962 32.041C67.1962 32.041 66.7372 32.1818 66.7345 32.1655C66.8496 32.1723 66.894 32.2287 66.9456 32.2896Z" fill="#AE7B3C"/>
<path class="bigChar" d="M66.5311 32.2052L66.7372 32.1678C66.6856 32.1651 66.6224 32.1746 66.5311 32.2052ZM66.9714 32.3198L66.9456 32.292C66.9409 32.3039 66.9433 32.3127 66.9714 32.3198ZM75.1392 32.0736C75.1932 32.1607 75.3639 31.9563 75.4481 31.8557C75.3595 31.9118 75.2214 31.973 75.1392 32.0736ZM80.5314 24.291L80.6835 24.1073C80.6109 24.1662 80.5735 24.1968 80.5314 24.291ZM78.6246 20.5904C78.6059 20.5836 78.592 20.5666 78.5805 20.5459C78.5896 20.5653 78.6052 20.5813 78.6246 20.5904ZM78.5801 20.5459C78.517 20.4119 78.7115 20.0436 78.5754 19.8912L78.6127 19.9123L78.5496 19.6495C78.5475 19.7692 78.5452 19.9569 78.5404 20.1327C78.5262 20.3041 78.5285 20.4683 78.5801 20.5459Z" fill="#AE7B3C"/>
</g>
<defs>
<clipPath id="clip0_5301_838">
<rect width="42.4743" height="53.2861" fill="white" transform="translate(48.5206 2.31907)"/>
</clipPath>
</defs>
</svg>